<svg width="31" height="32" viewBox="0 0 31 32" fill="none" xmlns="http://www.w3.org/2000/svg">
<g clip-path="url(#clip0_104_6494)">
<path fill-rule="evenodd" clip-rule="evenodd" d="M20.6559 4.39199C22.379 3.38837 24.5413 4.62966 24.5413 6.62399V10.8335C25.0502 10.8335 25.554 10.9338 26.0242 11.1285C26.4943 11.3232 26.9215 11.6087 27.2813 11.9685C27.6412 12.3283 27.9266 12.7555 28.1213 13.2256C28.3161 13.6958 28.4163 14.1997 28.4163 14.7085C28.4163 15.2174 28.3161 15.7213 28.1213 16.1914C27.9266 16.6616 27.6412 17.0887 27.2813 17.4486C26.9215 17.8084 26.4943 18.0938 26.0242 18.2886C25.554 18.4833 25.0502 18.5835 24.5413 18.5835V22.4585C24.5413 24.5872 22.1117 25.8027 20.4079 24.5252L17.7471 22.5283C16.3248 21.4618 14.6688 20.7498 12.9163 20.4513V24.1248C12.9164 24.9692 12.6113 25.7852 12.0572 26.4224C11.5031 27.0596 10.7373 27.475 9.90104 27.592C9.06477 27.709 8.21438 27.5198 7.50663 27.0593C6.79887 26.5987 6.28147 25.8978 6.04978 25.0858L4.02187 17.9868C3.2921 17.125 2.81718 16.0767 2.65049 14.9598C2.4838 13.8429 2.63195 12.7016 3.07828 11.6643C3.52462 10.6269 4.25145 9.73464 5.17707 9.08771C6.10269 8.44079 7.1904 8.06486 8.31795 8.0022L12.2162 7.7852C14.1235 7.67906 15.9784 7.12172 17.6283 6.15899L20.6559 4.39199ZM7.27687 19.976L8.53366 24.3767C8.59414 24.5897 8.72966 24.7736 8.91518 24.8945C9.10071 25.0154 9.32371 25.0651 9.54301 25.0344C9.7623 25.0037 9.96309 24.8947 10.1083 24.7275C10.2535 24.5603 10.3333 24.3462 10.3329 24.1248V20.2369L8.31795 20.1245C7.96729 20.105 7.61897 20.0553 7.27687 19.976ZM25.833 14.7085C25.833 14.366 25.6969 14.0374 25.4546 13.7952C25.2124 13.553 24.8839 13.4169 24.5413 13.4169V16.0002C24.8839 16.0002 25.2124 15.8641 25.4546 15.6219C25.6969 15.3796 25.833 15.0511 25.833 14.7085Z" fill="#F8771E"/>
</g>
<defs>
<clipPath id="clip0_104_6494">
<rect width="31" height="31" fill="white" transform="translate(0 0.5)"/>
</clipPath>
</defs>
</svg>
