<svg width="16" height="16" viewBox="0 0 16 16" fill="none" xmlns="http://www.w3.org/2000/svg">
<path d="M7.51527 13.542C7.45512 13.6057 7.4081 13.6805 7.37689 13.7623C7.34568 13.8442 7.33089 13.9313 7.33337 14.0189C7.33584 14.1064 7.35554 14.1926 7.39132 14.2725C7.42711 14.3524 7.47829 14.4245 7.54193 14.4847C7.60558 14.5448 7.68045 14.5918 7.76227 14.623C7.84409 14.6543 7.93126 14.669 8.01879 14.6666C8.10632 14.6641 8.19251 14.6444 8.27244 14.6086C8.35236 14.5728 8.42446 14.5217 8.4846 14.458L14.1513 8.45801C14.2683 8.33423 14.3335 8.17035 14.3335 8.00001C14.3335 7.82967 14.2683 7.66579 14.1513 7.54201L8.4846 1.54134C8.42485 1.4763 8.35278 1.42378 8.27256 1.38683C8.19234 1.34988 8.10558 1.32924 8.01732 1.3261C7.92905 1.32297 7.84105 1.3374 7.75841 1.36856C7.67577 1.39973 7.60015 1.447 7.53594 1.50763C7.47172 1.56827 7.4202 1.64106 7.38435 1.72178C7.34851 1.8025 7.32906 1.88953 7.32714 1.97783C7.32522 2.06613 7.34086 2.15393 7.37315 2.23613C7.40545 2.31833 7.45376 2.3933 7.51527 2.45667L12.7499 8.00001L7.51527 13.542Z" fill="#F8771E"/>
</svg>
