<svg width="20" height="21" viewBox="0 0 20 21" fill="none" xmlns="http://www.w3.org/2000/svg">
<path d="M9.39421 17.4275C9.31902 17.5071 9.26025 17.6007 9.22124 17.7029C9.18222 17.8052 9.16374 17.9142 9.16683 18.0236C9.16993 18.133 9.19454 18.2407 9.23928 18.3406C9.28401 18.4406 9.34798 18.5307 9.42754 18.6058C9.5071 18.681 9.60069 18.7398 9.70296 18.7788C9.80523 18.8178 9.91419 18.8363 10.0236 18.8332C10.133 18.8301 10.2408 18.8055 10.3407 18.7608C10.4406 18.716 10.5307 18.6521 10.6059 18.5725L17.6892 11.0725C17.8355 10.9178 17.917 10.7129 17.917 10.5C17.917 10.2871 17.8355 10.0822 17.6892 9.92752L10.6059 2.42668C10.5312 2.34538 10.4411 2.27973 10.3408 2.23354C10.2405 2.18736 10.1321 2.16155 10.0218 2.15763C9.91144 2.15371 9.80143 2.17176 9.69813 2.21071C9.59484 2.24967 9.50031 2.30876 9.42004 2.38455C9.33978 2.46035 9.27537 2.55134 9.23056 2.65223C9.18576 2.75313 9.16145 2.86193 9.15904 2.9723C9.15664 3.08267 9.17619 3.19242 9.21656 3.29517C9.25693 3.39792 9.31732 3.49163 9.39421 3.57085L15.9375 10.5L9.39421 17.4275Z" fill="white"/>
</svg>
