<svg width="8" height="56" viewBox="0 0 8 56" fill="none" xmlns="http://www.w3.org/2000/svg">
<path opacity="0.6" d="M4.5 1C4.5 0.723858 4.27614 0.5 4 0.5C3.72386 0.5 3.5 0.723858 3.5 1L4.5 1ZM3.64644 55.3536C3.84171 55.5488 4.15829 55.5488 4.35355 55.3536L7.53553 52.1716C7.73079 51.9763 7.73079 51.6597 7.53553 51.4645C7.34027 51.2692 7.02369 51.2692 6.82842 51.4645L4 54.2929L1.17157 51.4645C0.976309 51.2692 0.659726 51.2692 0.464464 51.4645C0.269202 51.6597 0.269202 51.9763 0.464464 52.1716L3.64644 55.3536ZM3.5 2.5C3.5 2.77614 3.72386 3 4 3C4.27614 3 4.5 2.77614 4.5 2.5L3.5 2.5ZM4.5 5.5C4.5 5.22386 4.27614 5 4 5C3.72386 5 3.5 5.22386 3.5 5.5L4.5 5.5ZM3.5 8.5C3.5 8.77614 3.72386 9 4 9C4.27614 9 4.5 8.77614 4.5 8.5L3.5 8.5ZM4.5 11.5C4.5 11.2239 4.27614 11 4 11C3.72386 11 3.5 11.2239 3.5 11.5L4.5 11.5ZM3.5 14.5C3.5 14.7761 3.72386 15 4 15C4.27614 15 4.5 14.7761 4.5 14.5L3.5 14.5ZM4.5 17.5C4.5 17.2239 4.27614 17 4 17C3.72386 17 3.5 17.2239 3.5 17.5L4.5 17.5ZM3.5 20.5C3.5 20.7761 3.72386 21 4 21C4.27614 21 4.5 20.7761 4.5 20.5L3.5 20.5ZM4.5 23.5C4.5 23.2239 4.27614 23 4 23C3.72386 23 3.5 23.2239 3.5 23.5L4.5 23.5ZM3.5 26.5C3.5 26.7761 3.72386 27 4 27C4.27614 27 4.5 26.7761 4.5 26.5L3.5 26.5ZM4.5 29.5C4.5 29.2239 4.27614 29 4 29C3.72386 29 3.5 29.2239 3.5 29.5L4.5 29.5ZM3.5 32.5C3.5 32.7761 3.72386 33 4 33C4.27614 33 4.5 32.7761 4.5 32.5L3.5 32.5ZM4.5 35.5C4.5 35.2239 4.27614 35 4 35C3.72386 35 3.5 35.2239 3.5 35.5L4.5 35.5ZM3.5 38.5C3.5 38.7761 3.72386 39 4 39C4.27614 39 4.5 38.7761 4.5 38.5L3.5 38.5ZM4.5 41.5C4.5 41.2239 4.27614 41 4 41C3.72386 41 3.5 41.2239 3.5 41.5L4.5 41.5ZM3.5 44.5C3.5 44.7761 3.72386 45 4 45C4.27614 45 4.5 44.7761 4.5 44.5L3.5 44.5ZM4.5 47.5C4.5 47.2239 4.27614 47 4 47C3.72386 47 3.5 47.2239 3.5 47.5L4.5 47.5ZM3.5 50.5C3.5 50.7761 3.72386 51 4 51C4.27614 51 4.5 50.7761 4.5 50.5L3.5 50.5ZM4.5 53.5C4.5 53.2239 4.27614 53 4 53C3.72386 53 3.5 53.2239 3.5 53.5L4.5 53.5ZM3.5 1L3.5 2.5L4.5 2.5L4.5 1L3.5 1ZM3.5 5.5L3.5 8.5L4.5 8.5L4.5 5.5L3.5 5.5ZM3.5 11.5L3.5 14.5L4.5 14.5L4.5 11.5L3.5 11.5ZM3.5 17.5L3.5 20.5L4.5 20.5L4.5 17.5L3.5 17.5ZM3.5 23.5L3.5 26.5L4.5 26.5L4.5 23.5L3.5 23.5ZM3.5 29.5L3.5 32.5L4.5 32.5L4.5 29.5L3.5 29.5ZM3.5 35.5L3.5 38.5L4.5 38.5L4.5 35.5L3.5 35.5ZM3.5 41.5L3.5 44.5L4.5 44.5L4.5 41.5L3.5 41.5ZM3.5 47.5L3.5 50.5L4.5 50.5L4.5 47.5L3.5 47.5ZM3.5 53.5L3.5 55L4.5 55L4.5 53.5L3.5 53.5Z" fill="white"/>
</svg>
