<svg width="36" height="37" viewBox="0 0 36 37" fill="none" xmlns="http://www.w3.org/2000/svg">
<path d="M6 6.5C5.20435 6.5 4.44129 6.81607 3.87868 7.37868C3.31607 7.94129 3 8.70435 3 9.5V17H12.195C12.885 14.36 15.27 12.5 18 12.5C19.3288 12.5036 20.6189 12.947 21.6691 13.7611C22.7193 14.5752 23.4703 15.7141 23.805 17H33V9.5C33 8.70435 32.6839 7.94129 32.1213 7.37868C31.5587 6.81607 30.7956 6.5 30 6.5H6ZM18 15.5C17.2044 15.5 16.4413 15.8161 15.8787 16.3787C15.3161 16.9413 15 17.7044 15 18.5C15 19.2956 15.3161 20.0587 15.8787 20.6213C16.4413 21.1839 17.2044 21.5 18 21.5C18.7956 21.5 19.5587 21.1839 20.1213 20.6213C20.6839 20.0587 21 19.2956 21 18.5C21 17.7044 20.6839 16.9413 20.1213 16.3787C19.5587 15.8161 18.7956 15.5 18 15.5ZM3 20V27.5C3 28.2956 3.31607 29.0587 3.87868 29.6213C4.44129 30.1839 5.20435 30.5 6 30.5H30C30.7956 30.5 31.5587 30.1839 32.1213 29.6213C32.6839 29.0587 33 28.2956 33 27.5V20H23.805C23.4703 21.2859 22.7193 22.4248 21.6691 23.2389C20.6189 24.053 19.3288 24.4964 18 24.5C16.6712 24.4964 15.3811 24.053 14.3309 23.2389C13.2807 22.4248 12.5297 21.2859 12.195 20H3Z" fill="#1D6A36"/>
</svg>
